<svg width="57" height="51" viewBox="0 0 57 51" xmlns="http://www.w3.org/2000/svg">
<path fill-rule="evenodd" clip-rule="evenodd" d="M56.6567 27.8762C56.6952 27.5658 56.7338 27.2555 56.7709 26.9451V24.958C56.7666 24.9479 56.7621 24.9379 56.7576 24.9278C56.7511 24.9136 56.7445 24.8993 56.7379 24.885C56.704 24.812 56.6702 24.7391 56.6598 24.6661C56.1042 21.9564 53.7571 19.8859 51.0488 19.7331C49.8405 19.6636 49.4516 20.0249 49.4516 21.2616V39.3403V39.9656H41.1324C41.1602 39.8406 41.1741 39.7711 41.188 39.7016C41.9167 36.9004 42.6435 34.1011 43.3706 31.3008C44.5695 26.6832 45.7691 22.0628 46.9795 17.4263C47.3545 15.9811 46.6739 15.467 45.4795 15.4809C41.6605 15.5107 37.8344 15.505 34.0062 15.4993L34.0053 15.4993C32.4739 15.4971 30.9422 15.4948 29.4105 15.4948H28.7994C28.4522 14.6193 28.6189 14.0357 29.2994 13.3687C31.0633 11.6317 31.7438 9.42224 31.4522 6.99044C30.9105 2.51593 26.9245 -0.555083 22.4385 0.0841324C19.2164 0.5427 17.022 2.41866 16.022 5.47578C15.0221 8.5329 15.7443 11.3121 18.0359 13.6049C18.4803 14.0496 18.5914 14.4526 18.4386 15.0084C18.397 15.1613 18.3692 15.3141 18.3414 15.4948H17.647H1.3558C0.272502 15.4948 -0.199706 16.1062 0.0780638 17.1484L0.0781003 17.1486L0.078243 17.1491L0.0785607 17.1503C2.49499 26.4739 4.91142 35.7975 7.34174 45.121C7.60562 46.1632 7.88339 46.3578 8.98058 46.3578H33.2021H38.1881C39.2019 46.3578 39.4797 46.1493 39.7436 45.1627C39.7846 45.0312 39.8209 44.8949 39.8637 44.7335C39.8933 44.6221 39.9261 44.4987 39.9658 44.3568C40.7436 49.0258 44.8823 51.4993 48.7017 50.9157C52.0349 50.4015 54.9098 47.3166 55.1042 43.8982C55.198 42.2724 55.362 40.6467 55.5261 39.0209L55.5261 39.0207C55.5808 38.4787 55.6355 37.9368 55.6876 37.3949C55.9367 34.8607 56.1858 32.3126 56.435 29.7646L56.435 29.7641L56.4351 29.7636L56.4351 29.7631L56.4351 29.7626L56.4352 29.7622L56.4352 29.7617L56.4375 29.7382C56.5023 29.1177 56.5795 28.4971 56.6566 27.8766L56.6566 27.8766L56.6566 27.8765L56.6566 27.8764L56.6566 27.8764L56.6566 27.8763L56.6567 27.8762ZM22.4246 43.384V44.1205C21.3969 44.1205 20.4247 44.1205 19.3414 44.1344C18.8385 38.7618 18.3409 33.3891 17.842 28.0036C17.528 24.6137 17.2136 21.2187 16.897 17.8154H30.1883C29.3828 26.5977 28.5772 35.3522 27.7578 44.1344H24.6885V43.4396V23.3599C24.6885 23.0681 24.6607 22.7624 24.5912 22.4845C24.4801 21.9842 24.0218 21.6785 23.5218 21.7063C23.008 21.7202 22.6469 21.9842 22.508 22.4845C22.4385 22.7624 22.4246 23.0681 22.4246 23.3599V43.384ZM11.4259 43.8644C11.4325 43.9443 11.4395 44.0277 11.4527 44.1205H9.42501C8.33543 39.9326 7.24266 35.7384 6.14823 31.5378L6.14641 31.5308C4.95362 26.9527 3.75886 22.367 2.5641 17.7737H14.661C15.1119 22.5992 15.5587 27.4247 16.0058 32.2549L16.007 32.2672L16.007 32.2679L16.0073 32.2705L16.0075 32.273C16.3723 36.2136 16.7374 40.1573 17.1053 44.1066H13.786C13.3277 41.8972 12.8694 39.6738 12.4249 37.4643L10.5083 28.0429C10.3555 27.2925 9.95278 26.9312 9.34168 26.9312C8.80003 26.9312 8.32782 27.2925 8.25838 27.8344C8.2306 28.1262 8.28616 28.4181 8.34171 28.7099C8.89593 31.4293 9.4543 34.1445 10.0123 36.8579L10.0126 36.8594C10.4752 39.1093 10.9376 41.3578 11.3972 43.6064C11.4117 43.6935 11.4186 43.7768 11.4259 43.8643L11.4259 43.8643L11.4259 43.8644L11.4259 43.8644ZM34.8548 36.7804L34.8544 36.7826C34.3545 39.2245 33.8547 41.6663 33.3549 44.1205H33.3539C32.2154 44.1205 31.1463 44.1205 30.0355 44.1066C30.4201 39.9784 30.8016 35.8594 31.1829 31.7424L31.1831 31.7407L31.1841 31.7293L31.1845 31.7256L31.1849 31.7211C31.6154 27.0729 32.0457 22.4272 32.4799 17.7737H44.5907C43.6898 21.2315 42.7912 24.6849 41.893 28.1366C40.5062 33.4656 39.1205 38.7905 37.7297 44.1205H35.6743C35.7272 43.8518 35.7789 43.5866 35.8301 43.324L35.8303 43.3231L35.8303 43.3227L35.8305 43.3217L35.8308 43.3206C35.9541 42.6881 36.0746 42.0703 36.202 41.4525C36.6464 39.2708 37.0943 37.0857 37.5423 34.9005C37.9902 32.7154 38.4381 30.5302 38.8825 28.3486C39.0075 27.6816 38.6742 27.0979 38.1047 26.9451C37.4659 26.7922 36.8687 27.1118 36.7159 27.8066C36.4027 29.1788 36.1231 30.5594 35.8445 31.9353C35.7648 32.329 35.6851 32.7223 35.6048 33.1149C35.3548 34.3377 35.1048 35.5591 34.8548 36.7804ZM42.6741 45.6352C42.1741 44.5791 42.1185 43.4674 42.2018 42.2585H48.1878H50.2433C51.2849 42.2585 51.6877 41.8694 51.6877 40.8272V22.8041V22.1371C52.8404 22.4428 53.5765 23.1515 54.1043 24.1242C54.653 25.1329 54.5451 26.2004 54.4378 27.2617L54.4377 27.2624C54.4283 27.3558 54.4188 27.4493 54.4098 27.5426C54.279 28.844 54.152 30.1493 54.0248 31.4563L54.0247 31.4578C53.9089 32.6484 53.7929 33.8405 53.6737 35.0325C53.5487 36.2901 53.4272 37.5477 53.3057 38.8053C53.1842 40.0629 53.0626 41.3205 52.9376 42.5781C52.9156 42.7804 52.8984 42.9847 52.8812 43.1894L52.8812 43.1895L52.8812 43.1896L52.8812 43.1897L52.8811 43.1898L52.8811 43.1898L52.8811 43.1899L52.8811 43.19C52.8333 43.7583 52.7852 44.3296 52.6321 44.8709C51.9516 47.1915 50.1461 48.5811 47.7295 48.7618C45.7017 48.9146 43.6324 47.6501 42.6741 45.6352ZM26.4353 15.2578L26.4354 15.2582L26.4354 15.2583C26.4454 15.3361 26.4555 15.415 26.4662 15.4948C24.5218 15.4948 22.6191 15.4948 20.6886 15.4809C20.7047 15.3478 20.7173 15.2158 20.7298 15.085L20.7298 15.0849C20.7604 14.7652 20.7903 14.4525 20.8691 14.1469C21.0497 13.4243 20.7858 12.9518 20.2164 12.5349C18.9247 11.6039 18.1748 10.3394 17.9387 8.75523C17.4526 5.57305 19.8136 2.57151 23.0496 2.2797C26.4384 1.96009 29.3689 4.66981 29.2717 8.08822C29.2161 9.86691 28.4939 11.3538 27.0634 12.4238C26.3829 12.9379 26.0912 13.4938 26.2856 14.3136C26.353 14.6168 26.3931 14.929 26.4353 15.2577L26.4353 15.2577L26.4353 15.2577L26.4353 15.2578ZM9.70288 5.30898C10.2723 4.75314 10.6056 4.10003 10.6334 3.43302C10.6334 2.1407 9.92509 1.39031 9.11956 0.723304C8.63346 0.306425 7.99459 0.306425 7.57794 0.723304C7.13351 1.16798 7.13351 1.80719 7.57794 2.32134C7.65104 2.40493 7.73395 2.48066 7.81635 2.55592L7.81636 2.55593C7.95313 2.68085 8.08847 2.80447 8.17514 2.96056C8.27236 3.14121 8.25847 3.44692 8.17514 3.62757C8.10766 3.75417 7.98893 3.86027 7.86877 3.96766C7.79109 4.03707 7.71281 4.10703 7.64738 4.18341C6.96684 4.93379 6.68907 5.78145 6.98073 6.78196C7.23072 7.58792 7.78626 8.18545 8.48069 8.63012C8.93901 8.92194 9.53621 8.78298 9.86954 8.3522C10.2584 7.86584 10.189 7.29611 9.68899 6.76806C8.98067 6.03157 8.98067 6.03157 9.70288 5.30898ZM38.174 8.76925C37.2713 8.75535 36.7574 7.85212 37.174 7.14342C37.299 6.93498 37.4657 6.76823 37.6324 6.60148C38.1324 6.08733 38.1046 6.04564 37.6185 5.4759C37.2435 5.03123 36.8546 4.55877 36.6324 4.03072C36.313 3.22475 36.5074 2.41878 37.0213 1.73788C37.3129 1.36269 37.6601 1.02918 38.0212 0.709576C38.4796 0.292697 39.1184 0.306593 39.5212 0.695681C39.9656 1.11256 40.0073 1.73788 39.5906 2.23814C39.424 2.43268 39.2434 2.62722 39.049 2.79397C38.674 3.12748 38.7018 3.4054 39.0351 3.76669C39.4101 4.16968 39.7851 4.60045 40.0212 5.08681C40.6045 6.35135 39.8129 8.19952 38.5212 8.71367C38.4375 8.74158 38.3414 8.7508 38.2662 8.75802C38.229 8.76158 38.197 8.76466 38.174 8.76925ZM45.1772 5.09702C45.2014 5.06254 45.2236 5.03106 45.2434 5.00327C45.3128 3.91938 44.4101 3.26627 43.7157 3.69704C42.7296 4.32236 41.924 5.14222 41.8963 6.43455C41.8824 7.43506 42.3963 8.14376 43.0907 8.76908C43.4379 9.08869 43.4657 9.3805 43.1046 9.70011C42.9935 9.79738 42.8824 9.89466 42.7851 10.0058C42.299 10.52 42.2713 11.187 42.7157 11.6317C43.1462 12.0763 43.7573 12.0763 44.3129 11.6317C46.0073 10.2698 46.0906 8.58843 44.549 7.04598C44.0073 6.50403 44.0212 6.46234 44.549 5.89261C44.8108 5.6187 45.0319 5.30396 45.1772 5.0971L45.1772 5.09702ZM5.21672 6.62933C5.21672 7.31024 4.8834 7.94945 4.32786 8.4775C4.28943 8.51424 4.25232 8.5493 4.21671 8.58293C3.67323 9.09629 3.48146 9.27744 4.34174 10.0339C4.86951 10.4924 4.85562 11.1455 4.42507 11.618C4.00842 12.0766 3.35566 12.1321 2.84179 11.6597C2.43902 11.2845 2.05014 10.8815 1.78626 10.409C1.24461 9.45022 1.41127 8.4914 2.06403 7.61595C2.15836 7.49011 2.26059 7.3801 2.36477 7.26801C2.39864 7.23156 2.43272 7.19489 2.4668 7.15738C3.12065 6.50318 3.12064 6.50318 2.56534 5.87564L2.49457 5.79557C2.23069 5.48986 1.95292 5.11467 1.89737 4.73948C1.78626 3.91962 2.74457 3.2665 3.4251 3.71118C4.3973 4.36429 5.23061 5.18415 5.21672 6.62933ZM9.77196 23.9157C9.77196 23.3043 9.31364 22.8457 8.68866 22.8457C8.06368 22.8319 7.5498 23.3182 7.5498 23.9296C7.5498 24.5272 8.07757 25.0413 8.68866 25.0552C9.28586 25.0691 9.77196 24.555 9.77196 23.9157ZM37.355 23.9435C37.355 23.2904 37.8133 22.8457 38.4661 22.8457C39.091 22.8457 39.5633 23.3043 39.5771 23.9157C39.591 24.5271 39.091 25.0552 38.4799 25.0691C37.8411 25.0691 37.355 24.5827 37.355 23.9435ZM27.5769 7.99088C27.5491 5.80921 25.702 3.96104 23.5353 3.98883C21.3549 4.01663 19.5077 5.89259 19.5355 8.03257C19.5632 10.2142 21.4382 12.0763 23.577 12.0346C25.7714 12.0068 27.6047 10.1448 27.5769 7.99088ZM23.5215 9.76957C22.5354 9.75567 21.7993 8.99139 21.8132 7.99088C21.8271 7.01816 22.6048 6.23999 23.5631 6.25388C24.5353 6.26778 25.3131 7.04595 25.3131 8.01867C25.3131 9.03308 24.5353 9.78347 23.5215 9.76957Z"/>
</svg>
