<svg width="51" height="51" viewBox="0 0 51 51" xmlns="http://www.w3.org/2000/svg">
<path fill-rule="evenodd" clip-rule="evenodd" d="M39.8256 1.84638C41.3467 1.98361 41.7457 2.20817 41.7208 2.91928C41.6959 3.60543 41.2844 3.81751 39.8256 3.89237C39.8256 3.98801 39.8269 4.08366 39.8283 4.17931C39.8311 4.3706 39.8339 4.56189 39.8256 4.75318C39.8006 5.35201 39.3767 5.7637 38.8156 5.7637C38.2794 5.75122 37.868 5.35201 37.843 4.77813C37.8349 4.59882 37.8374 4.41419 37.8401 4.21379V4.21359C37.8415 4.10731 37.843 3.9966 37.843 3.87989C37.7325 3.87989 37.6264 3.88134 37.5226 3.88276C37.3219 3.8855 37.1301 3.88812 36.9328 3.87989C36.3592 3.85494 35.9602 3.44325 35.9478 2.89433C35.9478 2.3454 36.3468 1.92123 36.9079 1.89628C37.0937 1.8882 37.2744 1.89059 37.477 1.89328C37.5869 1.89474 37.7033 1.89628 37.8305 1.89628C37.8305 1.79609 37.8291 1.6959 37.8278 1.59617V1.59594V1.59578C37.825 1.39762 37.8223 1.20131 37.8305 1.01052C37.8555 0.411693 38.2794 0 38.8405 0C39.3767 0.0124755 39.7881 0.411693 39.8131 0.985568C39.8317 1.18066 39.8295 1.38959 39.8272 1.61235V1.61245C39.8264 1.6888 39.8256 1.76678 39.8256 1.84638ZM23.0049 10.9288C22.9925 7.04894 25.2493 3.88016 28.4912 2.76983C29.3017 2.49537 30.2119 2.75736 30.7356 3.40609C31.2593 4.07976 31.3216 4.99048 30.8353 5.72654C30.2493 6.59982 29.7755 7.51054 29.6508 8.58344C29.3391 11.091 30.6608 13.4988 32.98 14.5218C33.5535 14.7713 34.0772 15.0582 34.364 15.6571C34.9251 16.8173 34.2643 18.2146 32.9675 18.4765C30.8229 18.9132 28.7655 18.6262 26.9077 17.4535C24.3516 15.8442 23.1296 13.4489 23.0049 10.9288ZM29.0398 4.76592C26.6084 5.51445 24.2144 8.55848 25.2992 12.2388C26.3466 15.7943 29.9376 17.1292 32.2942 16.468C27.8054 14.5343 26.1097 8.98265 29.0398 4.76592ZM0 34.5447C2.3192 30.5276 4.6384 26.5229 6.97006 22.5058C7.5561 21.5078 8.12966 20.4973 8.70322 19.4867C9.28926 18.4887 10.1496 18.4762 10.7232 19.4743C12.1321 21.907 13.5411 24.3522 14.9376 26.7974C14.9985 26.9018 15.0654 27.0062 15.1215 27.0936L15.1216 27.0938L15.1221 27.0946C15.1462 27.1322 15.1683 27.1667 15.187 27.1966C15.5891 27.0242 15.9853 26.8483 16.3788 26.6735C17.2668 26.2792 18.1414 25.8908 19.0399 25.5623C21.4962 24.6641 24.0648 24.3522 26.6708 24.5144C27.6993 24.5794 28.7184 24.7666 29.7363 24.9537C29.8907 24.982 30.0451 25.0104 30.1994 25.0383C30.9226 25.1756 31.2718 25.6746 31.1471 26.261C31.0224 26.8598 30.4738 27.1592 29.7506 26.9845C27.7306 26.5105 25.6857 26.3608 23.6284 26.5853C20.0124 26.9845 16.7705 28.3069 13.9775 30.6523C10.6608 33.4344 8.49125 36.94 7.74313 41.2191C7.51933 42.4999 7.47549 43.8128 7.43165 45.1256C7.41442 45.6414 7.3972 46.1572 7.36906 46.6709C7.34245 47.2035 7.34739 47.736 7.35246 48.2821C7.35452 48.5035 7.35659 48.7272 7.35659 48.954H13.6284V48.3801C13.6405 47.7747 13.6382 47.1679 13.636 46.5611C13.6313 45.2924 13.6266 44.0236 13.7531 42.7661C14.2643 37.6012 18.6658 33.2597 23.8154 32.5736C29.6882 31.7751 35.0373 35.3431 36.758 40.6951C37.1446 41.9053 37.3316 43.1404 37.3316 44.4129C37.3233 45.4165 37.326 46.4201 37.3288 47.4347C37.3302 47.9462 37.3316 48.4604 37.3316 48.9789H43.6034V48.0931C43.5963 47.6298 43.5932 47.1654 43.5902 46.7005V46.7002V46.6999V46.6995V46.6992C43.5825 45.5376 43.5749 44.3732 43.5037 43.2152C43.3042 40.0215 42.2817 37.0772 40.4363 34.4699C39.8798 33.6804 39.2183 32.9629 38.5584 32.2473L38.5584 32.2472L38.5581 32.2469C38.2275 31.8884 37.8973 31.5303 37.581 31.1638C37.5486 31.1253 37.5152 31.0868 37.4816 31.0481C37.3085 30.8485 37.1304 30.6432 37.0573 30.4028C36.9201 29.9662 37.0947 29.5919 37.4937 29.3299C37.8802 29.0804 38.379 29.1179 38.7655 29.5171L38.9472 29.6988C39.7341 30.4852 40.5156 31.2663 41.2219 32.112C42.4313 33.5591 43.2792 35.2184 44.0897 36.9151C44.8182 38.4275 45.6265 39.9001 46.4369 41.3765C46.7362 41.9216 47.0357 42.4672 47.3316 43.0156C48.0221 44.3042 48.7222 45.588 49.423 46.8729C49.8485 47.653 50.2742 48.4336 50.6981 49.2159C51.1595 50.0768 51.0722 50.4635 50.2867 50.9999H0.0124696V49.7025C0.576014 48.7275 1.1368 47.7525 1.70132 46.771L1.70247 46.769C2.33665 45.6664 2.97556 44.5556 3.62842 43.4273C3.38441 43.4273 3.14784 43.4252 2.91686 43.4231L2.91591 43.4231H2.91564H2.91558H2.91553C2.3562 43.418 1.82959 43.4133 1.30922 43.4398C0.710722 43.4647 0.274314 43.2776 0.0124696 42.7287V42.1298C0.813336 40.7381 1.6199 39.3464 2.43988 37.9315C2.8327 37.2537 3.2286 36.5706 3.62842 35.8796C3.3904 35.8796 3.16097 35.8774 2.93794 35.8753C2.40156 35.8703 1.90216 35.8656 1.40898 35.8921C0.822941 35.917 0.349127 35.7548 0.0124696 35.2558C0 35.0063 0 34.7817 0 34.5447ZM24.4763 34.5198C24.3969 34.5259 24.3205 34.529 24.2456 34.532C24.1676 34.5352 24.0913 34.5383 24.0149 34.5447C19.8129 35.0313 15.9975 38.9735 15.7356 43.2152C15.6564 44.5096 15.6518 45.8101 15.6471 47.1081V47.1082V47.1083V47.1084C15.6452 47.6494 15.6432 48.1899 15.6359 48.7294C15.6359 48.7774 15.6513 48.8254 15.6656 48.8701C15.6736 48.8951 15.6813 48.9191 15.6858 48.9415H24.4638C24.4763 44.1259 24.4763 39.3353 24.4763 34.5198ZM2.75561 41.4063C2.93017 41.4187 3.02992 41.4187 3.1172 41.4187C3.30422 41.4187 3.49124 41.4195 3.67825 41.4203H3.67856C4.23957 41.4226 4.80058 41.425 5.36159 41.4063C5.4738 41.4063 5.64837 41.2191 5.67331 41.0944C6.49625 36.8153 8.44138 33.1474 11.571 30.1159C12.0112 29.6931 12.4701 29.3014 12.9388 28.9012L12.9388 28.9012L12.9389 28.9011C13.134 28.7346 13.3308 28.5666 13.5287 28.3943C13.136 27.7136 12.7434 27.0317 12.3496 26.3478L12.3494 26.3474C11.4802 24.838 10.6056 23.319 9.7132 21.7822C9.03562 22.9568 8.36121 24.1272 7.68781 25.2959C6.04391 28.1487 4.40607 30.9911 2.74314 33.8586C3.05945 33.8586 3.36257 33.8571 3.65703 33.8557H3.65707H3.65711H3.65716H3.6574H3.65763H3.65785C4.22203 33.8529 4.7544 33.8504 5.28677 33.8586C5.87281 33.871 6.33415 34.2453 6.34662 34.7693C6.34662 35.0437 6.2344 35.3556 6.08478 35.6051C5.54645 36.5523 5.00199 37.4965 4.45138 38.4513L4.4511 38.4518C3.89226 39.4209 3.3271 40.4009 2.75561 41.4063ZM26.5211 34.4948V41.8304H27.0947H32.2693C33.2668 41.8304 33.6533 42.2047 33.6533 43.2027V48.43C33.6533 48.6046 33.6658 48.7793 33.6782 48.9415H35.2992C35.2992 48.3792 35.3039 47.8205 35.3087 47.2643V47.2636V47.263V47.2623C35.3193 46.0173 35.3298 44.7847 35.2867 43.5521C35.2244 41.7057 34.576 40.0215 33.4787 38.5369C31.7456 36.204 29.4388 34.8691 26.5211 34.4948ZM29.9127 48.954L26.5087 45.5481V48.954H29.9127ZM45.6234 48.954H48.2792C47.9011 48.2613 47.5298 47.5777 47.1566 46.8906L47.1561 46.8896C46.6557 45.9683 46.1518 45.0406 45.6234 44.076V48.954ZM28.1172 43.8889L31.571 47.3446V43.8889H28.1172ZM5.34912 44.6C5.33665 44.5938 5.32418 44.5906 5.31171 44.5875L5.31166 44.5875C5.29921 44.5844 5.28676 44.5813 5.2743 44.575C4.90778 45.21 4.54366 45.8449 4.17773 46.4829L4.17738 46.4836L4.17722 46.4839L4.17704 46.4841L4.17626 46.4855C3.70861 47.301 3.23799 48.1216 2.75561 48.954H5.34912V44.6ZM45.7237 12.7468C45.5814 12.7423 45.4383 12.7379 45.2995 12.7253V12.1264C45.2871 11.3654 44.9255 10.9038 44.3145 10.8914C43.6911 10.8789 43.3045 11.3529 43.3045 12.1514V12.7253C41.8083 12.8625 41.3719 13.087 41.4217 13.7732C41.4943 14.7689 42.1787 14.7902 42.8803 14.8121C43.0227 14.8165 43.1657 14.821 43.3045 14.8336V15.4325C43.317 16.1935 43.6786 16.6551 44.2896 16.6675C44.913 16.68 45.2995 16.2059 45.2995 15.4075V14.8336C46.7958 14.6964 47.2322 14.4718 47.1823 13.7857C47.1098 12.79 46.4254 12.7687 45.7237 12.7468ZM34.4638 28.7437C35.0125 28.7562 35.4614 28.2946 35.4614 27.7332C35.4614 27.1718 34.9875 26.6978 34.4264 26.6978C33.8778 26.6978 33.4414 27.1718 33.4539 27.7332C33.4539 28.2572 33.9402 28.7313 34.4638 28.7437Z"/>
</svg>
