<svg width="52" height="51" viewBox="0 0 52 51" xmlns="http://www.w3.org/2000/svg">
<path fill-rule="evenodd" clip-rule="evenodd" d="M36.5368 0.204584L36.5368 0.204612C36.6802 0.348952 36.8208 0.490516 36.9147 0.661301C39.1718 4.56672 41.4166 8.47213 43.6613 12.3775C43.6787 12.4089 43.697 12.4402 43.7155 12.4718C43.7634 12.5534 43.8124 12.6369 43.8483 12.7269C44.0603 13.2759 43.786 13.8 43.1999 13.8624C42.9007 13.8966 42.5956 13.8897 42.2525 13.8821H42.2525L42.2524 13.8821C42.0951 13.8785 41.9297 13.8748 41.7533 13.8748C41.8176 13.9875 41.8704 14.084 41.9177 14.1703L41.9177 14.1704C41.9803 14.2848 42.0331 14.3813 42.09 14.4737C42.7485 15.6219 43.4089 16.7701 44.0697 17.919L44.0705 17.9204L44.0709 17.921L44.0712 17.9217L44.073 17.9247L44.0757 17.9294L44.0758 17.9296L44.0773 17.9323C45.1159 19.738 46.1555 21.5455 47.1905 23.3576C47.3152 23.5822 47.4399 23.8442 47.4523 24.0938C47.4773 24.543 47.0907 24.8424 46.542 24.8799C46.409 24.8882 46.2759 24.8854 46.1429 24.8826C46.0764 24.8813 46.0099 24.8799 45.9434 24.8799H45.3573C45.3805 24.9357 45.4003 24.9863 45.4186 25.033C45.4493 25.1116 45.4756 25.1791 45.5069 25.2417C47.2777 28.3361 49.061 31.418 50.8443 34.4999C50.8669 34.5375 50.8984 34.5705 50.9308 34.6044C50.9523 34.6269 50.9741 34.6498 50.994 34.6746V35.2735C50.7446 35.7102 50.3705 35.8475 49.8716 35.8475C47.6017 35.8392 45.3317 35.8419 43.0655 35.8447H43.0636H43.0608H43.0581H43.0553H43.0525H43.0498H43.047H43.0442C41.9186 35.8461 40.794 35.8475 39.6707 35.8475C39.5584 35.8475 39.4337 35.8475 39.3215 35.835C38.7853 35.7477 38.4984 35.4232 38.5358 34.9366C38.5732 34.4874 38.8975 34.2005 39.4213 34.188C39.9773 34.1797 40.5278 34.1824 41.0801 34.1852H41.0803H41.0806H41.0808H41.081H41.0812H41.0815H41.0817H41.0826H41.0835H41.0844H41.0853H41.0862H41.0871H41.088C41.363 34.1866 41.6385 34.188 41.9154 34.188H48.1382H48.7368C48.6569 34.0441 48.5975 33.9309 48.5421 33.8255L48.5421 33.8254L48.5418 33.8249L48.494 33.7341C48.4795 33.7066 48.4649 33.6792 48.45 33.6515L43.3994 24.8549C43.3756 24.8142 43.3519 24.7743 43.3284 24.7349L43.3283 24.7348L43.3281 24.7345C43.2653 24.6293 43.2044 24.5271 43.15 24.4182C42.8881 23.8318 43.2373 23.2453 43.8857 23.2204C44.1536 23.2041 44.4214 23.209 44.7167 23.2144C44.8752 23.2173 45.0415 23.2204 45.2201 23.2204C45.168 23.1219 45.1212 23.0314 45.0773 22.9465C45.0268 22.8487 44.98 22.7582 44.9333 22.6714C43.2497 19.7392 41.5662 16.807 39.8702 13.8873C39.8411 13.8332 39.8106 13.7805 39.7801 13.7279C39.7192 13.6225 39.6582 13.5171 39.6083 13.4007C39.3838 12.8392 39.7205 12.3027 40.3191 12.2653C40.4609 12.2569 40.6083 12.2597 40.7538 12.2625H40.7538H40.7538H40.7539H40.7539H40.7539H40.754H40.754C40.826 12.2639 40.8975 12.2653 40.9676 12.2653H41.7158C39.9489 9.18603 38.2149 6.17273 36.4417 3.09133L36.4415 3.09097L36.0916 2.483C35.3382 3.7909 34.5888 5.09082 33.8394 6.39074L33.8368 6.3953C32.714 8.34297 31.5911 10.2907 30.4549 12.2653H31.7019C32.4751 12.2777 32.8492 12.8642 32.5001 13.5379C32.1509 14.1992 31.7768 14.8356 31.3902 15.4719C31.1033 15.9586 30.617 16.0958 30.2055 15.8587C29.7939 15.6092 29.6942 15.16 29.9685 14.6484C30.0414 14.5108 30.1194 14.3731 30.213 14.2082L30.2131 14.2081L30.2131 14.208C30.2637 14.1188 30.3188 14.0217 30.38 13.9123C30.2175 13.9123 30.0688 13.9138 29.9287 13.9153C29.671 13.918 29.442 13.9203 29.2078 13.9123C28.2974 13.8748 27.9607 13.2884 28.4222 12.5023C29.5631 10.5187 30.704 8.53814 31.8449 6.5576C32.9861 4.57657 34.1273 2.59554 35.2685 0.611391C35.3492 0.466161 35.4663 0.341801 35.5829 0.218067L35.5829 0.218061L35.5829 0.218043L35.5829 0.218031L35.5829 0.218023V0.218017V0.218013C35.6466 0.150415 35.7101 0.0830035 35.7674 0.0124774C35.9419 0 36.1415 0 36.341 0C36.404 0.0708523 36.4706 0.137979 36.5367 0.204515L36.5367 0.204521L36.5367 0.204527L36.5367 0.204535L36.5367 0.204546L36.5368 0.204562L36.5368 0.204584ZM50.9817 41.8366C50.67 42.2359 50.2709 42.3357 49.7721 42.3357C33.5727 42.3233 17.3734 42.3233 1.1865 42.3233C1.14044 42.3233 1.0958 42.3247 1.05161 42.3261H1.05156H1.0515H1.05144H1.05138H1.05132H1.05126H1.05119C0.963909 42.3288 0.878415 42.3315 0.787435 42.3233C0.338492 42.2734 0.0267268 41.9739 0.00178558 41.5621C-0.0231557 41.1379 0.213786 40.7885 0.675199 40.7137C1.00973 40.6608 1.34425 40.6515 1.69194 40.6418C1.83678 40.6378 1.9839 40.6337 2.13426 40.6263V27.2756C2.04573 27.3592 1.96301 27.4351 1.88459 27.5071C1.76417 27.6176 1.65387 27.7188 1.54814 27.8246C1.08673 28.2613 0.587904 28.3112 0.238727 27.9618C-0.122921 27.6 -0.0730386 27.1258 0.400845 26.6517C1.03622 26.016 1.67159 25.3795 2.30715 24.7428L2.30828 24.7417L2.30893 24.741C4.21756 22.829 6.12794 20.9153 8.04534 19.0155C8.28228 18.7785 8.39452 18.5414 8.39452 18.192C8.38205 15.1351 8.38205 12.0781 8.38205 9.03364C8.38205 8.11032 8.63146 7.86077 9.56676 7.86077H12.7468C13.5574 7.86077 13.8317 8.14775 13.8442 8.98373V13.1886L13.9407 13.0984C14.0862 12.9625 14.1877 12.8677 14.2807 12.7644C15.2695 11.7833 16.2528 10.7967 17.2379 9.80828C17.7312 9.31331 18.225 8.81787 18.7202 8.32243C19.3687 7.67361 19.7054 7.67361 20.3539 8.32243L38.5859 26.5643C38.6113 26.5898 38.6368 26.6138 38.6617 26.6373C38.7101 26.683 38.7567 26.727 38.7979 26.7765C39.1471 27.1757 39.1471 27.6499 38.8229 27.9743C38.4986 28.2862 38.0247 28.2862 37.6631 27.9369C37.5041 27.7871 37.3661 27.6163 37.2282 27.4456C37.1822 27.3886 37.1362 27.3317 37.0894 27.2756C37.0707 27.288 37.0489 27.3036 37.027 27.3193C37.0052 27.3348 36.9834 27.3504 36.9647 27.3629V40.6513H37.5384H49.7845C50.2958 40.6513 50.7323 40.7511 51.0067 41.2253C50.9817 41.4373 50.9817 41.6369 50.9817 41.8366V41.8366ZM5.16463 24.3683H33.9344L19.5433 9.96945C14.7545 14.7608 9.94088 19.577 5.16463 24.3683ZM15.2409 26.1027V40.6388H23.8207V26.1027H15.2409ZM3.8178 34.1381H13.5075V32.566H10.4896C9.89099 32.566 9.49193 32.2291 9.49193 31.7549C9.47946 31.2808 9.87852 30.9314 10.4646 30.9065C10.7062 30.8981 10.9533 30.9009 11.1986 30.9037C11.3205 30.9051 11.442 30.9065 11.5621 30.9065H13.5324V29.3468H3.84274V30.9065H4.41639C4.62838 30.9065 4.84037 30.9057 5.05237 30.9049C5.68838 30.9026 6.32439 30.9002 6.9604 30.9189C7.53405 30.9314 7.88322 31.2808 7.88322 31.7549C7.88322 32.2415 7.52158 32.566 6.9604 32.5784C6.71911 32.5868 6.47228 32.584 6.2273 32.5812H6.22718H6.22706H6.22693H6.22681H6.2267H6.22658H6.22647H6.22609H6.2257H6.22532H6.22494H6.22455H6.22417H6.22378C6.10275 32.5798 5.98219 32.5784 5.86298 32.5784H3.84274C3.8178 33.1399 3.8178 33.6265 3.8178 34.1381V34.1381ZM35.2188 35.8725H25.5167V37.4072L25.5825 37.4116L25.5827 37.4116C25.7425 37.4225 25.8852 37.4321 26.028 37.4321C26.2497 37.4321 26.4707 37.4314 26.6912 37.4306C27.3514 37.4282 28.0081 37.4259 28.6718 37.4446C29.2205 37.4571 29.5572 37.769 29.5696 38.2307C29.5821 38.7173 29.2329 39.0417 28.6468 39.0542C28.5052 39.0625 28.358 39.0597 28.2127 39.0569H28.2127H28.2126H28.2125H28.2124H28.2123H28.2123H28.2122H28.212H28.2118H28.2116C28.1398 39.0556 28.0684 39.0542 27.9983 39.0542H25.5292V40.6263H35.2188V39.0542H34.6452C34.3625 39.0542 34.0799 39.0556 33.7972 39.057C33.2319 39.0597 32.6665 39.0625 32.1012 39.0542C31.5275 39.0417 31.1659 38.7173 31.1784 38.2307C31.1784 37.7565 31.54 37.4446 32.1261 37.4321C32.2677 37.4238 32.4149 37.4266 32.5602 37.4294H32.5603H32.5604H32.5605H32.5605H32.5606H32.5607H32.5608H32.561C32.6329 37.4308 32.7045 37.4321 32.7746 37.4321H35.2313C35.2188 36.8958 35.2188 36.4093 35.2188 35.873V35.8725ZM13.5075 26.1152H3.8178V27.6374H13.5075V26.1152ZM25.5042 27.6249H35.2188V26.0902H25.5042V27.6249ZM35.2313 29.3343H25.5167V30.8566H35.2313V29.3343ZM25.5167 32.5909V34.1381H35.2188V32.5909H25.5167ZM3.8178 37.4072H13.5075V35.8725H3.8178V37.4072ZM13.5075 39.0916H3.8178V40.6388H13.5075V39.0916ZM12.1482 9.53274H10.0656V16.9817L10.0657 16.9816C10.7765 16.2705 11.4124 15.6341 12.0359 14.9729C12.1357 14.8731 12.1482 14.6734 12.1482 14.5112C12.1565 13.9618 12.1537 13.4069 12.1509 12.8538V12.8538V12.8537V12.8537V12.8537V12.8536V12.8536V12.8536C12.1496 12.5777 12.1482 12.3023 12.1482 12.0282V9.53274ZM8.13902 49.9379C8.14471 49.8724 8.14995 49.8122 8.15743 49.7598C8.15406 49.6721 8.15251 49.5907 8.15106 49.5146C8.14715 49.309 8.14395 49.1409 8.10755 48.9862C8.02026 48.5744 7.75837 48.3124 7.30943 48.3124C6.87296 48.3124 6.56119 48.5494 6.52378 48.9737C6.4739 49.4603 6.44896 49.9719 6.57366 50.4335C6.63601 50.6706 7.01013 50.9077 7.28449 50.9825C7.64614 51.0699 7.94543 50.8203 8.05767 50.446C8.11004 50.2713 8.12576 50.0905 8.13902 49.9379ZM20.6033 47.4638C20.6033 47.534 20.606 47.6057 20.6088 47.6777C20.6143 47.8233 20.6199 47.9707 20.6033 48.1126C20.5409 48.5368 20.2915 48.7989 19.855 48.8238C19.4186 48.8488 19.0943 48.6367 19.032 48.2124C18.9696 47.7383 18.9821 47.2642 19.032 46.79C19.0818 46.3533 19.456 46.0913 19.88 46.1412C20.3164 46.1911 20.5659 46.4531 20.6157 46.8774C20.6157 46.9694 20.6127 47.0645 20.6096 47.1611L20.6096 47.1613C20.6065 47.261 20.6033 47.3624 20.6033 47.4638ZM9.74868 47.2626C9.75144 47.3347 9.75417 47.4063 9.75417 47.4765C9.75417 47.5753 9.7507 47.6741 9.74741 47.7674V47.7674L9.74741 47.7675C9.74448 47.8509 9.7417 47.9299 9.7417 48.0006C9.77911 48.4622 10.0659 48.7617 10.4775 48.7991C10.9389 48.849 11.2881 48.5995 11.3379 48.1253C11.3878 47.6762 11.3754 47.202 11.3255 46.7528C11.2756 46.3161 10.9514 46.104 10.5149 46.1165C10.0784 46.1414 9.81652 46.4035 9.75417 46.8277C9.73749 46.9696 9.74312 47.117 9.74868 47.2626ZM34.1644 47.2586L34.1644 47.2585C34.1566 47.107 34.1487 46.9549 34.1836 46.815C34.2584 46.4282 34.5078 46.1662 34.9194 46.1413C35.3558 46.1163 35.6926 46.3284 35.7424 46.7526C35.8048 47.2143 35.8048 47.7009 35.7549 48.1751C35.705 48.6367 35.3808 48.8488 34.9194 48.8239C34.5078 48.7989 34.2085 48.4995 34.1711 48.0503C34.1462 47.8507 34.1587 47.651 34.1711 47.4514C34.1711 47.3879 34.1678 47.3233 34.1644 47.2586ZM32.5441 49.8401C32.5408 49.7754 32.5374 49.7108 32.5374 49.6473L32.5382 49.6354V49.6353C32.5504 49.4527 32.5618 49.2815 32.5374 49.0983C32.4875 48.6616 32.2755 48.3621 31.8016 48.3122C31.3402 48.2623 30.991 48.4869 30.9287 48.986C30.8663 49.4352 30.8788 49.9093 30.9412 50.3585C30.991 50.7952 31.3153 51.0073 31.7518 50.9949C32.2007 50.9699 32.4501 50.6954 32.5249 50.2836C32.5599 50.1438 32.552 49.9917 32.5441 49.8402L32.5441 49.8401ZM4.86519 45.3054C4.86519 45.3719 4.86657 45.4385 4.86796 45.505C4.87073 45.6381 4.8735 45.7712 4.86519 45.9043C4.82778 46.341 4.51601 46.6405 4.09201 46.6654C3.66801 46.6904 3.31883 46.4159 3.26895 45.9792C3.23153 45.5549 3.21906 45.1182 3.25648 44.694C3.29389 44.2323 3.66801 43.9204 4.07954 43.9454C4.50354 43.9703 4.82778 44.3072 4.85272 44.7564C4.87137 44.8964 4.8691 45.0294 4.86677 45.1658C4.86598 45.2118 4.86519 45.2582 4.86519 45.3054ZM46.103 45.0577C46.1044 45.1187 46.1058 45.1802 46.1058 45.243C46.1058 45.3146 46.1037 45.3862 46.1017 45.4575C46.0966 45.6347 46.0916 45.8101 46.1183 45.9792C46.1931 46.4159 46.4924 46.653 46.9164 46.653C47.3155 46.653 47.6397 46.4409 47.6896 46.0291C47.7395 45.5675 47.7395 45.0808 47.6896 44.6067C47.6522 44.1575 47.3154 43.9579 46.8914 43.9454C46.4924 43.9329 46.1432 44.2823 46.1058 44.694C46.0975 44.8183 46.1002 44.9371 46.103 45.0577Z"/>
</svg>
