<svg width="38" height="51" viewBox="0 0 38 51" xmlns="http://www.w3.org/2000/svg">
<g clip-path="url(#clip0_215_833)">
<path d="M37.5438 21.9723C37.5438 28.8605 37.5438 35.7487 37.5289 42.6216C37.5289 43.0474 37.38 43.5188 37.1864 43.8989C36.2481 45.7236 36.2333 47.5179 37.2459 49.3122C37.4693 49.7075 37.6629 50.0724 37.4395 50.5286C37.2013 50.9848 36.7843 51 36.3375 51C25.7192 51 15.086 51 4.46767 51C2.01042 51 0.0892943 49.0993 0.0892943 46.6055C0.0744019 33.042 0.0744019 19.5089 0.0892943 5.96064C0.0892943 2.69141 2.76993 0 5.97181 0C16.1285 0 26.3 0 36.4566 0C37.2757 0 37.5438 0.304114 37.5438 1.20125C37.5438 8.11986 37.5438 15.0385 37.5438 21.9723ZM7.44616 42.1199C7.72912 42.1199 7.9525 42.1199 8.161 42.1199C12.9117 42.1199 17.6773 42.1199 22.428 42.1199C22.6365 42.1199 22.8449 42.1047 23.0385 42.1503C23.5151 42.2719 23.7683 42.6064 23.7385 43.1082C23.7087 43.5796 23.4555 43.8837 22.979 43.9445C22.7407 43.975 22.5024 43.975 22.2641 43.975C16.4859 43.975 10.7076 43.975 4.92934 43.975C4.6166 43.975 4.28896 43.975 3.99111 44.0206C2.69547 44.203 1.71257 45.5564 1.92106 46.864C2.14445 48.3086 3.15714 49.1601 4.70595 49.1601C14.6392 49.1601 24.5874 49.1601 34.5206 49.1601C34.6993 49.1601 34.878 49.1601 35.1014 49.1601C34.9525 48.5671 34.8334 48.0501 34.6844 47.4723C34.4759 47.4723 34.2526 47.4723 34.0292 47.4723C25.1533 47.4723 16.2625 47.4723 7.38659 47.4723C7.1632 47.4723 6.93982 47.4875 6.71643 47.4571C6.25477 47.381 6.00159 47.0921 5.97181 46.6055C5.94202 45.9669 6.32923 45.6324 7.11853 45.6324C16.0987 45.6324 25.0639 45.6324 34.0441 45.6324C34.2675 45.6324 34.4908 45.6324 34.6844 45.6324C34.8185 45.0698 34.9376 44.568 35.0865 43.975C34.8483 43.975 34.6547 43.975 34.4462 43.975C33.1058 43.975 31.7655 43.975 30.4401 43.975C29.2189 43.975 27.9828 43.9902 26.7617 43.9598C26.4638 43.9598 26.0617 43.9141 25.883 43.7317C25.6745 43.5188 25.5554 43.093 25.6 42.7889C25.6745 42.2567 26.1213 42.1046 26.6127 42.1046C29.4423 42.1046 32.257 42.1046 35.0865 42.1046C35.2801 42.1046 35.4886 42.1046 35.712 42.1046C35.712 28.6476 35.712 15.2513 35.712 1.83989C26.2702 1.83989 16.8731 1.83989 7.44616 1.83989C7.44616 1.99195 7.43127 2.09839 7.43127 2.22004C7.43127 4.16637 7.43127 6.12791 7.43127 8.07424C7.43127 8.63685 7.04406 9.01699 6.52283 9.00179C6.03138 8.98658 5.67396 8.62165 5.65907 8.08945C5.64418 7.6941 5.65907 7.29875 5.65907 6.88819C5.65907 5.21556 5.65907 3.55814 5.65907 1.88551C5.55482 1.88551 5.51014 1.8703 5.45057 1.8703C3.44009 2.09839 1.8615 4.01431 1.8615 6.27996C1.8615 18.3077 1.8615 30.3354 1.8615 42.3631C1.8615 42.5456 1.87639 42.7129 1.89128 42.9714C3.08268 42.2111 4.31875 42.0134 5.64418 42.1199C5.64418 41.8157 5.64418 41.6029 5.64418 41.3748C5.64418 31.5823 5.64418 21.805 5.64418 12.0125C5.64418 11.3131 5.9867 10.8721 6.52283 10.8721C7.07385 10.8569 7.41638 11.2826 7.43127 11.9821C7.43127 12.119 7.43127 12.2406 7.43127 12.3775C7.43127 22.0331 7.43127 31.6887 7.43127 41.3444C7.44616 41.5724 7.44616 41.8005 7.44616 42.1199Z"/>
<path d="M21.3264 16.0876C21.9816 16.2093 22.7263 16.2853 23.4262 16.4982C25.6899 17.1977 27.0004 19.144 26.777 21.5465C26.6877 22.5045 26.4792 23.4472 26.226 24.3748C25.7048 26.2603 25.124 28.1306 24.5729 30.0161C24.558 30.0921 24.5283 30.1529 24.5134 30.229C24.3644 31.2173 24.6027 31.4606 25.5409 31.1869C26.1217 31.0197 26.7026 30.7916 27.2834 30.6091C28.0578 30.3658 28.6237 30.822 28.5343 31.6583C28.4301 32.6315 28.0131 33.4678 27.4025 34.1977C25.2282 36.7522 20.7307 37.1932 18.1245 35.11C16.7842 34.0456 16.263 32.5859 16.4268 30.8828C16.7097 27.9329 17.3948 25.0742 18.4968 22.322C18.5564 22.1699 18.5862 22.0027 18.6308 21.8354C18.7053 21.4553 18.5713 21.2272 18.1841 21.2576C17.499 21.3336 16.8289 21.4097 16.1587 21.5313C15.7268 21.6073 15.3247 21.729 14.9673 21.364C14.6099 20.9991 14.6844 20.5733 14.8035 20.1476C15.4141 17.9427 16.9927 16.8631 19.0776 16.4222C19.7478 16.2701 20.4924 16.2093 21.3264 16.0876ZM25.943 33.1941C25.9133 33.1485 25.8984 33.1029 25.8686 33.0724C25.7048 33.0876 25.5558 33.1028 25.392 33.1333C23.4262 33.4374 22.5476 31.8864 22.6965 30.3658C22.7709 29.6055 23.0092 28.8605 23.2177 28.1154C23.7687 26.1386 24.3942 24.1771 24.8857 22.1851C25.4665 19.813 24.0517 18.4597 22.5178 18.1252C21.0434 17.8059 19.5989 18.1252 18.2139 18.6422C17.8416 18.7791 17.5288 19.0832 17.082 19.4025C17.5437 19.4025 17.8267 19.3873 18.0947 19.4025C19.5095 19.4937 20.3882 20.2236 20.4328 21.4857C20.4477 22.0179 20.3286 22.5805 20.135 23.0823C19.2117 25.4544 18.616 27.9025 18.2734 30.4266C17.9756 32.6619 18.884 34.076 20.9094 34.5018C22.1157 34.7451 23.322 34.6538 24.4538 34.152C24.975 33.8783 25.4516 33.4982 25.943 33.1941Z"/>
<path d="M25.5256 11.0849C25.5256 13.016 24.0065 14.6126 22.1301 14.643C20.2685 14.6734 18.6602 13.0312 18.6602 11.0849C18.6602 9.13852 20.2536 7.51151 22.1301 7.52672C23.9917 7.55713 25.5256 9.15373 25.5256 11.0849ZM22.0258 12.7727C22.9492 12.8031 23.7087 12.0884 23.7236 11.1457C23.7385 10.2181 23.0534 9.45784 22.1599 9.42743C21.2514 9.39702 20.5068 10.0965 20.4621 11.0088C20.4324 11.9516 21.1174 12.7423 22.0258 12.7727Z"/>
</g>
</svg>
