<svg width="56" height="12" viewBox="0 0 56 12" xmlns="http://www.w3.org/2000/svg">
<path d="M6.41743 9.17135C7.83799 8.9969 8.99687 7.83802 9.17133 6.41746C9.39563 4.66045 8.16198 3.05297 6.40497 2.82867C6.13083 2.79129 5.85668 2.79129 5.57008 2.82867C4.14952 3.01559 2.99064 4.16201 2.81619 5.58257C2.59189 7.33958 3.82553 8.94705 5.58254 9.17135C5.86915 9.20873 6.14329 9.20873 6.41743 9.17135ZM6.61681 0.0249343C9.44547 0.324 11.676 2.55453 11.9751 5.38319C12.3489 9.18381 9.18379 12.3365 5.39563 11.9626C2.56696 11.6636 0.336435 9.43303 0.03737 6.60437C-0.348923 2.81621 2.81619 -0.348897 6.61681 0.0249343ZM15.19 0.274155H23.9751C24.3115 0.274155 24.4984 0.660448 24.2991 0.922131L18.2181 8.94705H22.9782C23.8505 8.94705 24.5233 9.7321 24.3489 10.6418C24.2118 11.3022 23.6012 11.7508 22.9283 11.7508H13.3832C13.0467 11.7508 12.8598 11.377 13.0592 11.1153L19.1402 3.09035H15.2274C14.5545 3.09035 13.9315 2.64176 13.8068 1.98132C13.6448 1.0592 14.3177 0.274155 15.19 0.274155ZM53.3209 0.299078C54.2305 0.112162 55.028 0.79752 55.028 1.66979V11.3271C55.028 11.6636 54.6417 11.8505 54.38 11.6386L46.8037 5.63241V10.3427C46.8037 11.215 46.0062 11.9003 45.0966 11.7134C44.4486 11.5763 44 10.9657 44 10.3053V0.672909C44 0.336461 44.3863 0.149545 44.648 0.361383L52.2243 6.36761V1.70718C52.2243 1.04674 52.6729 0.436149 53.3209 0.299078ZM33.5825 1.21719e-05C38.2181 1.21719e-05 41.9813 2.6916 41.9813 5.99378C41.9813 9.29596 38.2181 11.9875 33.5825 11.9875C28.947 11.9875 25.1838 9.29596 25.1838 5.99378C25.1838 2.6916 28.947 1.21719e-05 33.5825 1.21719e-05ZM33.5825 2.80375C30.38 2.80375 27.9875 4.49845 27.9875 6.00624C27.9875 7.51403 30.38 9.20873 33.5825 9.20873C36.785 9.20873 39.1776 7.51403 39.1776 6.00624C39.1776 4.49845 36.785 2.80375 33.5825 2.80375Z"/>
</svg>
