<svg width="47" height="51" viewBox="0 0 47 51" xmlns="http://www.w3.org/2000/svg">
<g clip-path="url(#clip0_215_837)">
<path d="M23.0735 0C24.5735 2.24486e-05 25.6629 0.46014 26.6237 1.41051C28.505 3.29125 30.6088 4.86187 32.9755 6.09235C33.1778 6.19239 33.4104 6.42248 33.4408 6.62256C33.4812 6.86265 33.3801 7.18278 33.2284 7.37285C32.9856 7.67297 32.6316 7.61295 32.308 7.45288C30.3357 6.43248 28.505 5.22201 26.8563 3.73142C26.4214 3.34127 26.0067 2.93111 25.5819 2.53095C24.0041 1.05037 22.1734 1.09039 20.5753 2.55096C19.4223 3.61138 18.249 4.67179 16.9848 5.58215C13.8493 7.85304 10.3093 9.22358 6.46585 9.7938C5.22178 9.97387 4.02829 10.254 3.09777 11.1743C1.81325 12.4248 1.45925 13.9454 1.74245 15.6561C2.22794 18.6173 2.65274 21.5884 3.24949 24.5296C4.02829 28.3611 5.00938 32.1526 6.74905 35.694C7.41659 37.0645 8.2662 38.305 9.3282 39.4154C12.6356 42.8468 16.3476 45.7979 20.2315 48.539C22.0217 49.8095 24.1862 49.8095 25.9663 48.539C29.1321 46.2981 32.1158 43.8272 35.0388 41.2661C38.1541 38.5251 40.0252 35.1237 41.2187 31.2622C42.4526 27.2607 43.3326 23.1891 43.9597 19.0474C44.1721 17.6169 44.4654 16.1963 44.5362 14.7658C44.6576 12.1647 42.8977 10.284 40.2983 9.87383C38.7508 9.63374 37.2337 9.20357 35.7064 8.84343C35.3119 8.75339 35.0591 8.5033 35.0793 8.06312C35.0995 7.67297 35.3119 7.44288 35.676 7.36285C35.8278 7.33284 36.0098 7.37285 36.1615 7.41287C37.8304 7.77301 39.4892 8.17317 41.158 8.49329C44.0811 9.06352 46.3467 11.8246 46.0635 14.7758C45.8106 17.3468 45.3858 19.8978 44.9307 22.4488C44.2935 26.0202 43.4641 29.5516 42.2402 32.9829C41.5525 34.8937 40.8141 36.7844 39.6105 38.445C38.8519 39.4955 37.972 40.4658 37.0617 41.3862C33.9465 44.5274 30.4773 47.2485 26.8563 49.7895C24.5402 51.4101 21.7587 51.4401 19.4223 49.8095C15.5485 47.1084 11.8871 44.1473 8.5494 40.796C6.74905 38.9853 5.50498 36.8544 4.56435 34.5235C3.02697 30.722 2.07622 26.7605 1.34799 22.7489C0.882733 20.2579 0.518617 17.7869 0.144386 15.306C-0.36133 12.0247 2.08634 8.84343 5.48476 8.40326C9.80358 7.83303 13.6976 6.27242 17.1162 3.59137C18.0265 2.88109 18.8458 2.07077 19.6954 1.29047C20.6563 0.41012 21.5735 0 23.0735 0Z"/>
<path d="M40.4093 16.5364C40.2677 17.4868 40.0957 18.7473 39.8934 20.0078C39.3877 23.119 38.8517 26.2202 37.8807 29.2214C37.3446 30.872 36.6872 32.4827 36.0298 34.0933C35.2611 35.954 33.7945 37.2745 32.3077 38.545C29.9106 40.5758 27.4528 42.5366 25.0051 44.4974C23.8622 45.4177 22.5069 45.4778 21.3842 44.6274C18.3195 42.3265 15.3459 39.9256 12.5443 37.3146C11.0473 35.914 10.1168 34.2033 9.37847 32.3526C8.07372 29.0513 7.26458 25.62 6.66783 22.1386C6.35429 20.2979 6.07109 18.4372 5.78788 16.5864C5.56537 15.1459 6.45543 13.7753 7.88155 13.3752C9.40882 12.935 10.9563 12.5849 12.4633 12.0847C15.5786 11.0443 18.36 9.40361 20.8886 7.3328C21.0808 7.17274 21.283 7.01267 21.4853 6.87262C22.5271 6.11232 23.7004 6.12233 24.7422 6.88262C25.8446 7.69294 26.9066 8.56328 28.0597 9.31358C31.1041 11.3044 34.4519 12.5548 38.0122 13.2951C39.5495 13.6053 40.4295 14.7157 40.4093 16.5364ZM38.9022 16.2663C38.9022 15.496 38.4269 14.9558 37.7087 14.7757C36.3635 14.4256 35.0082 14.1255 33.6933 13.6953C30.1533 12.5448 26.9875 10.7141 24.1252 8.3532C23.2756 7.65293 22.9418 7.70295 22.0517 8.3432C20.4941 9.46364 18.9466 10.6041 17.298 11.5845C14.5874 13.1851 11.6137 14.1455 8.52887 14.7857C7.62869 14.9758 7.20389 15.586 7.33538 16.4964C7.62869 18.4572 7.92201 20.4279 8.2659 22.3887C8.8323 25.66 9.63133 28.8712 10.8653 31.9625C11.5126 33.6031 12.3723 35.0937 13.6872 36.3142C16.3877 38.8352 19.2703 41.1461 22.2136 43.3769C22.8305 43.8471 23.4071 43.8371 24.0544 43.3069C26.8055 41.056 29.5566 38.7951 32.2773 36.5042C33.3899 35.5739 34.28 34.4434 34.816 33.0829C35.4128 31.5923 35.9893 30.0917 36.4748 28.5611C37.3952 25.68 37.8908 22.7088 38.3864 19.7277C38.5786 18.5472 38.7404 17.3567 38.9022 16.2663Z"/>
<path d="M23.0546 26.5705C25.0269 24.5597 26.9688 22.5589 28.931 20.5782C29.9526 19.5478 31.2067 19.3677 32.3699 20.0179C33.8162 20.8283 34.2107 22.719 33.1891 24.0195C33.0374 24.2196 32.8554 24.3997 32.6834 24.5697C30.2155 26.9907 27.7476 29.4116 25.2797 31.8326C23.9446 33.1331 22.5792 33.2031 21.1227 32.0527C20.7991 31.7926 20.4653 31.5425 20.1518 31.2624C19.7877 30.9422 19.7472 30.472 20.0203 30.1619C20.2833 29.8618 20.7182 29.8218 21.1126 30.1119C21.5071 30.402 21.8712 30.7221 22.2556 31.0123C22.913 31.5024 23.4592 31.4924 24.0559 30.9122C26.6351 28.3912 29.2142 25.8702 31.7833 23.3392C32.3294 22.799 32.3699 22.0487 31.9046 21.5585C31.4293 21.0583 30.6302 21.0684 30.0739 21.6186C27.9803 23.6594 25.8967 25.7102 23.8132 27.761C23.1456 28.4112 22.9231 28.4312 22.1949 27.841C20.8294 26.7406 19.464 25.6301 18.0884 24.5397C17.2085 23.8394 16.3083 24.0895 16.0049 25.1099C15.8431 25.6401 16.0959 26.0203 16.4702 26.3304C17.1175 26.8806 17.7951 27.4008 18.4526 27.9511C18.6144 28.0811 18.8268 28.2812 18.8369 28.4412C18.8369 28.7114 18.756 29.0315 18.584 29.2316C18.3615 29.4917 17.9974 29.5017 17.7142 29.2716C16.8646 28.6013 15.9746 27.9611 15.2059 27.2008C14.4574 26.4705 14.2147 25.5101 14.6091 24.4897C14.9833 23.5193 15.6205 22.799 16.7129 22.629C17.5726 22.4889 18.3413 22.779 18.9987 23.3092C20.2023 24.2596 21.3958 25.23 22.5994 26.2004C22.6702 26.2704 22.7714 26.3504 23.0546 26.5705Z"/>
</g>
</svg>
