<svg width="30" height="13" viewBox="0 0 30 13" xmlns="http://www.w3.org/2000/svg">
<g clip-path="url(#clip0_659_176)">
<path d="M3.47205 13L0 0H2.28778L4.95238 9.98551L7.80538 0H9.93168L12.8116 10.0393L15.5031 0H17.7909L14.2919 13L11.6542 12.9731L8.88199 3.28364L6.10973 13H3.47205Z"/>
<path d="M29.2837 9.28572C29.2837 10.3623 28.9069 11.2236 28.1533 11.9234C27.3996 12.6232 26.4845 13 25.381 13H19.8096V0H24.9504C26.027 0 26.9152 0.349896 27.6419 1.02277C28.3955 1.72257 28.7454 2.55694 28.7454 3.57971C28.7454 4.71014 28.2878 5.59834 27.4265 6.21739C28.5839 6.83644 29.2837 7.93996 29.2837 9.28572ZM21.9628 2.01863V5.43685H24.9773C25.9193 5.43685 26.646 4.68323 26.646 3.7412C26.646 2.77226 25.9193 2.04555 24.9773 2.04555H21.9628V2.01863ZM25.381 11.0083C26.3769 11.0083 27.1574 10.2008 27.1574 9.17805C27.1574 8.15528 26.3769 7.37474 25.381 7.37474H21.9628V11.0083H25.381Z"/>
</g>
<defs>
<clipPath id="clip0_659_176">
<rect width="29.2836" height="13"/>
</clipPath>
</defs>
</svg>
