<?xml version="1.0" encoding="utf-8"?><svg viewBox="0 0 57 51" xmlns="http://www.w3.org/2000/svg" xmlns:xlink="http://www.w3.org/1999/xlink"><style>:root>svg{display:none}:root>svg:target{display:block}</style><svg viewBox="0 0 57 51" id="bath" xmlns="http://www.w3.org/2000/svg"><path fill-rule="evenodd" clip-rule="evenodd" d="M56.657 27.876l.114-.93v-1.988l-.013-.03-.02-.043a.817.817 0 01-.078-.219c-.556-2.71-2.903-4.78-5.611-4.933-1.209-.07-1.597.292-1.597 1.529v18.704h-8.32c.028-.125.042-.195.056-.264l2.183-8.401c1.198-4.618 2.398-9.238 3.608-13.875.376-1.445-.305-1.959-1.5-1.945-3.819.03-7.645.024-11.473.018-1.532-.002-3.064-.004-4.596-.004h-.61c-.348-.876-.181-1.46.5-2.126 1.763-1.737 2.444-3.947 2.152-6.379-.542-4.474-4.528-7.545-9.014-6.906-3.222.459-5.416 2.335-6.416 5.392-1 3.057-.278 5.836 2.014 8.129.444.445.555.848.403 1.403-.042.153-.07.306-.098.487H1.356c-1.083 0-1.556.611-1.278 1.653v.002a20666.11 20666.11 0 007.264 27.971c.264 1.042.541 1.237 1.639 1.237h29.207c1.014 0 1.292-.209 1.556-1.195.04-.132.077-.268.12-.43.03-.11.062-.234.102-.376.778 4.669 4.916 7.142 8.736 6.559 3.333-.514 6.208-3.6 6.402-7.018.094-1.626.258-3.251.422-4.877.055-.542.11-1.084.162-1.626l.747-7.63v-.003l.002-.024c.065-.62.143-1.24.22-1.861zM22.425 43.384v.736c-1.028 0-2 0-3.084.014-.503-5.372-1-10.745-1.499-16.13-.314-3.39-.628-6.785-.945-10.189h13.291c-.805 8.783-1.61 17.537-2.43 26.32h-3.07V23.36c0-.292-.027-.598-.097-.875-.11-.5-.57-.806-1.07-.779-.513.014-.874.278-1.013.779-.07.277-.083.583-.083.875v20.024zm-11 .48c.007.08.014.164.028.257H9.425c-1.09-4.188-2.182-8.383-3.277-12.583l-.002-.007-3.582-13.757h12.097c.45 4.825.898 9.65 1.345 14.48l.001.013v.006c.365 3.94.73 7.884 1.098 11.834h-3.319c-.458-2.21-.917-4.433-1.361-6.643l-1.917-9.421c-.152-.75-.555-1.112-1.166-1.112-.542 0-1.014.361-1.084.903-.027.292.028.584.084.876.554 2.72 1.112 5.434 1.67 8.148v.001c.463 2.25.926 4.499 1.385 6.747.015.087.022.17.029.258zm23.43-7.084v.003c-.5 2.441-1 4.883-1.5 7.337h-.001c-1.139 0-2.208 0-3.319-.013.385-4.129.767-8.248 1.148-12.365v-.001l.001-.012v-.008c.431-4.648.862-9.294 1.296-13.947h12.11l-2.697 10.363C40.506 33.466 39.12 38.79 37.73 44.12h-2.056l.156-.796v-.003c.124-.633.245-1.25.372-1.868.444-2.182.892-4.367 1.34-6.553.448-2.185.896-4.37 1.34-6.551.126-.667-.208-1.251-.777-1.404-.64-.153-1.236.167-1.39.862a171.453 171.453 0 00-.87 4.128l-.24 1.18-.75 3.665zm7.82 8.855c-.5-1.056-.556-2.168-.473-3.377h8.041c1.042 0 1.445-.389 1.445-1.43V22.136c1.152.306 1.889 1.014 2.416 1.987.549 1.009.441 2.076.334 3.138-.01.094-.02.187-.028.28-.131 1.302-.258 2.607-.385 3.914v.002c-.116 1.19-.232 2.383-.351 3.575-.125 1.257-.247 2.515-.368 3.772-.122 1.258-.243 2.516-.368 3.773-.022.202-.04.407-.057.611v.001c-.048.568-.096 1.14-.249 1.68-.68 2.322-2.486 3.711-4.902 3.892-2.028.153-4.098-1.112-5.056-3.127zm-16.24-30.377l.031.237c-1.944 0-3.847 0-5.777-.014.016-.133.028-.265.04-.396.031-.32.061-.633.14-.938.18-.723-.083-1.195-.653-1.612-1.291-.931-2.041-2.196-2.277-3.78-.486-3.182 1.875-6.183 5.11-6.475 3.39-.32 6.32 2.39 6.223 5.808-.056 1.779-.778 3.266-2.209 4.336-.68.514-.972 1.07-.777 1.89.067.303.107.615.15.944zM9.703 5.309c.57-.556.903-1.209.93-1.876 0-1.292-.708-2.043-1.513-2.71-.487-.417-1.125-.417-1.542 0-.444.445-.444 1.084 0 1.598.073.084.156.16.238.235.137.125.272.248.36.405.096.18.082.486 0 .667-.068.126-.187.232-.307.34-.078.07-.156.139-.222.215-.68.75-.958 1.598-.666 2.599.25.806.805 1.403 1.5 1.848.458.292 1.055.153 1.389-.278.388-.486.319-1.056-.181-1.584-.708-.736-.708-.736.014-1.459zm28.471 3.46c-.903-.014-1.417-.917-1-1.626.125-.208.292-.375.458-.542.5-.514.473-.555-.014-1.125-.375-.445-.763-.917-.986-1.445-.319-.806-.125-1.612.39-2.293a7.758 7.758 0 011-1.028c.458-.417 1.096-.403 1.5-.014.444.417.485 1.042.069 1.542-.167.195-.348.39-.542.556-.375.333-.347.611-.014.973.375.403.75.833.986 1.32.584 1.264-.208 3.113-1.5 3.627-.084.028-.18.037-.255.044-.037.004-.069.007-.092.011zm7.003-3.672l.066-.094c.07-1.084-.833-1.737-1.527-1.306-.986.625-1.792 1.445-1.82 2.738-.014 1 .5 1.709 1.195 2.334.347.32.375.611.014.931a3.335 3.335 0 00-.32.306c-.486.514-.514 1.181-.07 1.626.431.444 1.042.444 1.598 0 1.694-1.362 1.778-3.044.236-4.586-.542-.542-.528-.584 0-1.153.262-.274.483-.589.628-.796zM5.217 6.629c0 .681-.334 1.32-.89 1.848a24.77 24.77 0 01-.11.106c-.544.513-.736.694.125 1.45.528.46.514 1.113.083 1.585-.417.459-1.07.514-1.583.042-.403-.376-.792-.778-1.056-1.251-.541-.959-.375-1.918.278-2.793a4.29 4.29 0 01.3-.348l.103-.11c.654-.655.654-.655.098-1.282l-.07-.08c-.264-.306-.542-.681-.598-1.057-.11-.82.848-1.472 1.528-1.028.972.653 1.806 1.473 1.792 2.918zm4.555 17.287c0-.612-.458-1.07-1.083-1.07-.625-.014-1.14.472-1.14 1.084 0 .597.529 1.111 1.14 1.125.597.014 1.083-.5 1.083-1.14zm27.583.027c0-.653.458-1.097 1.111-1.097.625 0 1.097.458 1.111 1.07a1.14 1.14 0 01-1.097 1.153 1.104 1.104 0 01-1.125-1.125zM27.577 7.992c-.028-2.182-1.875-4.03-4.042-4.002-2.18.028-4.027 1.904-4 4.044.028 2.181 1.903 4.043 4.042 4.002 2.194-.028 4.028-1.89 4-4.044zM23.52 9.77c-.986-.014-1.722-.779-1.708-1.78.014-.972.792-1.75 1.75-1.736.972.014 1.75.792 1.75 1.765 0 1.014-.778 1.764-1.791 1.75z"/></svg><svg viewBox="0 0 51 51" id="camp" xmlns="http://www.w3.org/2000/svg"><path fill-rule="evenodd" clip-rule="evenodd" d="M39.826 1.846c1.52.138 1.92.362 1.895 1.073-.025.686-.437.899-1.895.973 0 .096 0 .192.002.287.003.192.006.383-.002.574-.025.599-.45 1.01-1.01 1.01-.537-.012-.948-.411-.973-.985-.008-.18-.006-.364-.003-.564.002-.107.003-.217.003-.334-.11 0-.217.001-.32.003-.201.002-.393.005-.59-.003-.574-.025-.973-.437-.985-.986 0-.549.399-.973.96-.998a9.94 9.94 0 01.569-.003c.11.002.226.003.354.003l-.003-.3a10.35 10.35 0 01.002-.585C37.857.41 38.28 0 38.84 0c.537.012.948.412.973.986.019.195.017.404.014.626l-.001.234zM23.005 10.93c-.012-3.88 2.244-7.049 5.486-8.16a2.058 2.058 0 012.245.637c.523.674.586 1.584.1 2.32-.587.874-1.06 1.785-1.185 2.857-.312 2.508 1.01 4.916 3.329 5.939.574.25 1.097.536 1.384 1.135a1.986 1.986 0 01-1.396 2.82c-2.145.436-4.203.15-6.06-1.024-2.556-1.609-3.778-4.004-3.903-6.524zm6.035-6.163c-2.432.748-4.826 3.792-3.74 7.473 1.047 3.555 4.638 4.89 6.994 4.229-4.489-1.934-6.184-7.485-3.254-11.702zM0 34.545a5982.08 5982.08 0 016.97-12.04c.586-.997 1.16-2.008 1.733-3.018.586-.998 1.447-1.01 2.02-.013a1401.25 1401.25 0 014.215 7.323c.06.105.127.21.183.297h.001l.065.103a99.87 99.87 0 001.192-.523c.888-.395 1.762-.783 2.66-1.112 2.457-.898 5.026-1.21 7.632-1.048 1.028.065 2.047.253 3.065.44l.463.084c.724.138 1.073.637.948 1.223-.125.599-.673.898-1.396.724-2.02-.474-4.065-.624-6.123-.4-3.616.4-6.858 1.722-9.65 4.067C10.66 33.434 8.49 36.94 7.742 41.22c-.224 1.28-.268 2.594-.311 3.907-.018.515-.035 1.031-.063 1.545a27.204 27.204 0 00-.017 1.611c.003.222.005.445.005.672h6.271v-.574c.012-.605.01-1.212.008-1.819-.005-1.269-.01-2.537.117-3.795.511-5.165 4.913-9.506 10.062-10.192a11.882 11.882 0 0112.943 8.121 12.12 12.12 0 01.574 3.718 273.961 273.961 0 00-.003 3.022c.001.511.003 1.025.003 1.544h6.271v-.886c-.007-.463-.01-.928-.013-1.393-.008-1.162-.015-2.327-.086-3.485-.2-3.194-1.222-6.138-3.068-8.745-.556-.79-1.218-1.507-1.878-2.223a44.398 44.398 0 01-1.076-1.199c-.173-.2-.352-.405-.425-.645-.137-.437.038-.811.437-1.073.386-.25.885-.212 1.272.187l.181.182c.787.786 1.569 1.567 2.275 2.413 1.21 1.447 2.057 3.106 2.868 4.803.728 1.513 1.536 2.985 2.347 4.462.3.545.599 1.09.895 1.639.69 1.288 1.39 2.572 2.091 3.857.425.78.851 1.56 1.275 2.343.462.86.374 1.248-.411 1.784H.012v-1.297c.564-.976 1.125-1.95 1.69-2.932v-.002c.635-1.103 1.274-2.213 1.926-3.342-.244 0-.48-.002-.711-.004h-.001c-.56-.005-1.086-.01-1.607.017-.598.025-1.035-.162-1.297-.711v-.6c.801-1.39 1.608-2.783 2.428-4.197l1.188-2.052c-.238 0-.467-.003-.69-.005-.536-.005-1.036-.01-1.529.017-.586.025-1.06-.137-1.397-.636C0 35.006 0 34.782 0 34.545zm24.476-.025c-.08.006-.155.009-.23.012-.078.003-.155.006-.231.013-4.202.486-8.018 4.428-8.28 8.67-.079 1.295-.083 2.595-.088 3.893-.002.541-.004 1.082-.011 1.621 0 .048.015.096.03.141.008.025.015.05.02.072h8.778c.012-4.816.012-9.607.012-14.422zm-21.72 6.886c.174.013.274.013.361.013l.561.001c.562.003 1.123.005 1.684-.014.112 0 .286-.187.311-.312.823-4.279 2.768-7.947 5.898-10.978.44-.423.9-.815 1.368-1.215.195-.166.392-.334.59-.507l-1.18-2.046c-.869-1.51-1.743-3.029-2.636-4.566l-2.025 3.514c-1.644 2.853-3.282 5.695-4.945 8.563.316 0 .62-.002.914-.003a79.979 79.979 0 011.63.003c.586.012 1.047.386 1.06.91 0 .275-.113.587-.262.836-.539.947-1.083 1.892-1.634 2.846-.559.97-1.124 1.95-1.695 2.955zm23.765-6.911v7.335h5.748c.998 0 1.384.375 1.384 1.373v5.227c0 .175.013.35.025.511H35.3c0-.562.005-1.12.01-1.677v-.001c.01-1.246.02-2.478-.022-3.71-.063-1.847-.711-3.531-1.808-5.016-1.733-2.333-4.04-3.668-6.958-4.042zm3.392 14.459l-3.404-3.406v3.406h3.404zm15.71 0h2.656c-.378-.693-.75-1.376-1.122-2.063v-.001c-.501-.922-1.005-1.85-1.534-2.814v4.878zm-17.506-5.065l3.454 3.456v-3.456h-3.454zM5.35 44.6a.177.177 0 00-.037-.013.171.171 0 01-.038-.012c-.366.635-.73 1.27-1.096 1.908l-.001.001v.002c-.468.815-.939 1.636-1.421 2.468h2.593V44.6zm40.375-31.853c-.143-.005-.286-.01-.424-.022v-.599c-.013-.76-.374-1.222-.985-1.235-.624-.012-1.01.462-1.01 1.26v.574c-1.497.138-1.933.362-1.883 1.048.072.996.757 1.017 1.458 1.04.143.003.286.008.424.02v.6c.013.76.375 1.222.986 1.235.623.012 1.01-.462 1.01-1.26v-.574c1.496-.138 1.932-.362 1.882-1.048-.072-.996-.757-1.017-1.458-1.04zm-11.26 15.997c.549.012.997-.45.997-1.01 0-.562-.474-1.036-1.035-1.036-.548 0-.985.474-.972 1.035 0 .524.486.998 1.01 1.01z"/></svg><svg viewBox="0 0 52 51" id="heating" xmlns="http://www.w3.org/2000/svg"><path fill-rule="evenodd" clip-rule="evenodd" d="M36.537.205c.143.144.284.286.378.456a5682.951 5682.951 0 016.8 11.81c.048.082.097.166.133.256.212.549-.062 1.073-.648 1.135-.3.035-.604.028-.948.02a21.394 21.394 0 00-.499-.007c.065.113.117.209.165.295.062.115.115.211.172.304.658 1.148 1.319 2.296 1.98 3.445v.002h.001l.002.004.003.004.001.003c1.039 1.806 2.079 3.614 3.114 5.426.124.224.249.486.261.736.025.449-.361.748-.91.786a4.786 4.786 0 01-.4.003c-.066-.002-.132-.003-.199-.003h-.586l.062.153c.03.079.057.146.088.209 1.77 3.094 3.554 6.176 5.337 9.258a.62.62 0 00.087.104c.021.023.043.046.063.07v.6c-.25.436-.623.573-1.122.573-2.27-.008-4.54-.005-6.806-.002h-.022l-3.373.002c-.113 0-.237 0-.35-.012-.536-.087-.823-.412-.785-.898.037-.45.361-.736.885-.749a82.68 82.68 0 011.66-.003h.007c.275.002.55.003.827.003h6.822c-.08-.144-.14-.257-.195-.363l-.048-.09-.044-.084-5.05-8.796-.072-.12a4.81 4.81 0 01-.178-.317c-.262-.586.087-1.173.736-1.198.268-.016.535-.011.83-.006.16.003.325.006.504.006a32.279 32.279 0 01-.143-.273c-.05-.098-.097-.189-.144-.276-1.683-2.932-3.367-5.864-5.063-8.784a5.711 5.711 0 00-.09-.16c-.06-.104-.122-.21-.172-.326-.224-.562.113-1.098.711-1.136.142-.008.29-.005.435-.003l.214.003h.748c-1.767-3.079-3.501-6.092-5.274-9.174l-.35-.608-2.253 3.908-.002.004c-1.123 1.948-2.246 3.896-3.382 5.87h1.247c.773.013 1.147.6.798 1.273-.35.661-.723 1.298-1.11 1.934-.287.487-.773.624-1.184.387-.412-.25-.512-.699-.238-1.21.073-.138.151-.276.245-.44v-.001l.167-.296c-.162 0-.311.002-.451.003-.258.003-.487.005-.721-.003-.91-.037-1.247-.624-.786-1.41l3.423-5.944L35.269.61c.08-.145.197-.27.314-.393.064-.068.127-.135.184-.206.175-.012.374-.012.574-.012.063.07.13.138.196.205zm14.445 41.632c-.312.399-.711.499-1.21.499-16.2-.013-32.399-.013-48.585-.013-.047 0-.091.002-.135.003-.088.003-.174.005-.265-.003-.449-.05-.76-.35-.785-.76-.025-.425.212-.775.673-.85.335-.052.67-.062 1.017-.071.145-.004.292-.008.442-.016v-13.35c-.088.083-.171.16-.25.231-.12.11-.23.212-.336.318-.461.436-.96.486-1.31.137-.36-.362-.311-.836.163-1.31l1.906-1.91h.001v-.001a1476.43 1476.43 0 015.737-5.726c.237-.236.35-.474.35-.823-.013-3.057-.013-6.114-.013-9.158 0-.924.25-1.173 1.185-1.173h3.18c.81 0 1.085.287 1.097 1.123v4.205l.097-.09c.145-.136.247-.231.34-.335.989-.98 1.972-1.967 2.957-2.956l1.482-1.486c.649-.648.985-.648 1.634 0l18.232 18.242c.025.026.05.05.076.073.048.046.095.09.136.14.35.399.35.873.025 1.197-.324.312-.798.312-1.16-.037a4.845 4.845 0 01-.435-.491 13.505 13.505 0 00-.139-.17l-.062.043-.062.044V40.65h12.82c.51 0 .947.1 1.222.574-.025.212-.025.412-.025.612zM5.165 24.368h28.77L19.542 9.97c-4.788 4.792-9.602 9.608-14.378 14.4zm10.076 1.735v14.536h8.58V26.103h-8.58zM3.818 34.138h9.69v-1.572H10.49c-.599 0-.998-.337-.998-.811-.013-.474.387-.824.973-.848.241-.009.488-.006.734-.003l.363.003h1.97v-1.56h-9.69v1.56h.574l.636-.002c.636-.002 1.272-.005 1.908.014.574.012.923.362.923.836 0 .487-.361.811-.923.823-.24.009-.488.006-.733.003h-.003l-.361-.003h-2.02c-.025.562-.025 1.048-.025 1.56zm31.4 1.735h-9.701v1.534l.066.005c.16.01.302.02.445.02l.663-.001c.66-.003 1.317-.005 1.98.014.55.012.886.324.899.786.012.486-.337.81-.923.823a5.65 5.65 0 01-.434.003h-.001l-.214-.003H25.53v1.572h9.69v-1.572h-.574c-.283 0-.565.002-.848.003-.565.003-1.13.005-1.696-.003-.573-.012-.935-.337-.923-.823 0-.474.362-.786.948-.799a5.65 5.65 0 01.434-.003h.001l.214.003h2.456c-.012-.536-.012-1.023-.012-1.559zm-21.71-9.758h-9.69v1.522h9.69v-1.522zm11.996 1.51h9.715V26.09h-9.715v1.535zm9.727 1.71h-9.714v1.522h9.714v-1.523zm-9.714 3.256v1.547h9.702v-1.547h-9.702zm-21.7 4.816h9.69v-1.534h-9.69v1.534zm9.69 1.685h-9.69v1.547h9.69v-1.547zm-1.359-29.56h-2.082v7.45a96.309 96.309 0 001.97-2.01c.1-.099.112-.299.112-.46.008-.55.006-1.105.003-1.658l-.003-.826V9.533zM8.14 49.939c.006-.066.011-.126.018-.178l-.006-.245a2.558 2.558 0 00-.043-.529c-.088-.412-.35-.674-.799-.674-.436 0-.748.237-.785.662-.05.486-.075.998.05 1.46.062.237.436.474.71.549.362.087.661-.163.774-.537.052-.175.068-.355.081-.508zm12.464-2.474c0 .07.003.142.006.214.005.145.01.293-.006.435-.062.424-.312.686-.748.71-.436.026-.76-.186-.823-.61a6.026 6.026 0 010-1.423c.05-.437.424-.699.848-.649.436.05.686.312.736.736 0 .092-.003.188-.006.284-.003.1-.007.201-.007.303zM9.75 47.263a5.63 5.63 0 01-.002.504c-.003.084-.005.163-.005.234.037.461.324.76.735.798.462.05.811-.2.86-.674.05-.449.038-.923-.011-1.372-.05-.437-.375-.649-.811-.636-.437.024-.698.287-.76.71-.018.143-.012.29-.006.436zm24.415-.004c-.007-.152-.015-.304.02-.444.074-.387.324-.649.735-.674.437-.025.774.187.823.612.063.461.063.948.013 1.422-.05.462-.374.674-.836.649-.411-.025-.71-.325-.748-.774-.025-.2-.012-.399 0-.599 0-.063-.003-.128-.007-.192zm-1.62 2.581c-.003-.065-.007-.13-.007-.193l.001-.012a2.633 2.633 0 000-.537c-.05-.436-.262-.736-.736-.786-.462-.05-.811.175-.873.674-.063.45-.05.923.012 1.373.05.436.374.648.81.636.45-.025.7-.3.774-.711.035-.14.027-.292.02-.444zM4.865 45.305c0 .067.002.133.003.2.003.133.005.266-.003.4a.8.8 0 01-.773.76c-.424.025-.773-.25-.823-.686a7.372 7.372 0 01-.013-1.285c.038-.462.412-.774.824-.749.424.025.748.362.773.811.018.14.016.273.014.41l-.002.14zm41.238-.247c.001.06.003.122.003.185 0 .072-.002.143-.004.215a2.84 2.84 0 00.016.521c.075.437.374.674.798.674.4 0 .724-.212.774-.624.05-.462.05-.948 0-1.422-.038-.45-.375-.65-.799-.662-.399-.012-.748.337-.785.749a3.985 3.985 0 00-.003.364z"/></svg><svg viewBox="0 0 38 51" id="instruction" xmlns="http://www.w3.org/2000/svg"><g clip-path="url(#clip0_215_833)"><path d="M37.544 21.972c0 6.888 0 13.777-.015 20.65 0 .425-.149.897-.343 1.277-.938 1.825-.953 3.619.06 5.413.223.396.417.76.194 1.217-.239.456-.656.471-1.102.471H4.467C2.01 51 .089 49.1.089 46.605.074 33.042.074 19.51.09 5.962.09 2.69 2.77 0 5.972 0h30.485c.819 0 1.087.304 1.087 1.201v20.771zM7.446 42.12h14.982c.209 0 .417-.015.61.03.477.122.73.456.7.958-.03.472-.282.776-.759.837-.238.03-.477.03-.715.03H4.93c-.312 0-.64 0-.938.046-1.296.182-2.278 1.535-2.07 2.843.223 1.445 1.236 2.296 2.785 2.296H35.1c-.148-.593-.268-1.11-.417-1.688H7.387c-.224 0-.447.015-.67-.015-.462-.076-.715-.365-.745-.852-.03-.638.357-.973 1.147-.973h27.565c.135-.562.254-1.064.403-1.657H30.44c-1.221 0-2.457.015-3.678-.015-.298 0-.7-.046-.879-.228-.209-.213-.328-.639-.283-.943.074-.532.521-.684 1.013-.684h9.099V1.84H7.446c0 .152-.015.258-.015.38v5.854c0 .563-.387.943-.908.928-.492-.015-.849-.38-.864-.913-.015-.395 0-.79 0-1.2V1.885c-.104 0-.149-.016-.208-.016-2.01.228-3.59 2.144-3.59 4.41v36.083c0 .183.015.35.03.608 1.192-.76 2.428-.958 3.753-.851v-.745-29.363c0-.699.343-1.14.879-1.14.55-.015.893.41.908 1.11V41.344c.015.228.015.456.015.776z"/><path d="M21.326 16.088c.656.121 1.4.197 2.1.41 2.264.7 3.574 2.646 3.351 5.049-.09.957-.298 1.9-.551 2.828-.521 1.885-1.102 3.756-1.653 5.641-.015.076-.045.137-.06.213-.149.988.09 1.232 1.028.958.58-.167 1.162-.395 1.742-.578.775-.243 1.34.213 1.251 1.05-.104.973-.52 1.809-1.131 2.539-2.175 2.554-6.672 2.995-9.278.912-1.34-1.064-1.862-2.524-1.698-4.227.283-2.95.968-5.809 2.07-8.561.06-.152.09-.32.134-.487.074-.38-.06-.608-.447-.577-.685.076-1.355.152-2.025.273-.432.076-.834.198-1.192-.167-.357-.365-.283-.79-.164-1.216.611-2.205 2.19-3.285 4.275-3.726.67-.152 1.414-.213 2.248-.334zm4.617 17.106c-.03-.046-.045-.091-.074-.122-.164.016-.313.03-.477.061-1.966.304-2.844-1.247-2.695-2.767.074-.76.312-1.506.52-2.25.552-1.977 1.177-3.939 1.669-5.93.58-2.373-.834-3.726-2.368-4.06-1.475-.32-2.92 0-4.304.516-.372.137-.685.441-1.132.76.462 0 .745-.015 1.013 0 1.415.092 2.293.822 2.338 2.084a4.216 4.216 0 01-.298 1.596c-.923 2.372-1.519 4.82-1.862 7.345-.297 2.235.611 3.649 2.636 4.075 1.207.243 2.413.152 3.545-.35.521-.274.998-.654 1.489-.958zM25.526 11.085c0 1.931-1.52 3.528-3.396 3.558-1.861.03-3.47-1.612-3.47-3.558 0-1.946 1.594-3.573 3.47-3.558 1.862.03 3.396 1.627 3.396 3.558zm-3.5 1.688a1.634 1.634 0 001.698-1.627c.014-.928-.67-1.688-1.564-1.719a1.643 1.643 0 00-1.698 1.582c-.03.943.655 1.733 1.564 1.764z"/></g></svg><svg viewBox="0 0 56 12" id="ozon" xmlns="http://www.w3.org/2000/svg"><path d="M6.417 9.171a3.2 3.2 0 002.754-2.754 3.202 3.202 0 00-3.6-3.588c-1.421.187-2.58 1.333-2.755 2.754A3.202 3.202 0 006.417 9.17zm.2-9.146c2.828.299 5.059 2.53 5.358 5.358a6.001 6.001 0 01-6.58 6.58A6.021 6.021 0 01.038 6.604c-.386-3.788 2.78-6.953 6.58-6.58zm8.573.25h8.785c.336 0 .523.385.324.647l-6.08 8.025h4.76c.872 0 1.544.785 1.37 1.695-.137.66-.748 1.109-1.42 1.109h-9.546a.396.396 0 01-.324-.636L19.14 3.09h-3.913c-.672 0-1.296-.448-1.42-1.109-.162-.922.51-1.707 1.383-1.707zm38.13.024a1.406 1.406 0 011.708 1.37v9.658a.398.398 0 01-.648.312l-7.576-6.007v4.71c0 .873-.798 1.558-1.707 1.371-.648-.137-1.097-.747-1.097-1.408V.673c0-.337.386-.523.648-.312l7.576 6.007v-4.66c0-.661.449-1.272 1.097-1.409zM33.584 0c4.635 0 8.398 2.692 8.398 5.994 0 3.302-3.763 5.994-8.398 5.994-4.636 0-8.4-2.692-8.4-5.994 0-3.302 3.764-5.994 8.4-5.994zm0 2.804c-3.203 0-5.595 1.694-5.595 3.202S30.38 9.21 33.583 9.21c3.202 0 5.595-1.695 5.595-3.203 0-1.508-2.393-3.202-5.595-3.202z"/></svg><svg viewBox="0 0 9 16" id="slider-arrow" xmlns="http://www.w3.org/2000/svg"><path d="M8.707 8.707a1 1 0 000-1.414L2.343.929A1 1 0 00.93 2.343L6.586 8 .929 13.657a1 1 0 101.414 1.414l6.364-6.364zM8 7H7v2h1V7z"/></svg><svg viewBox="0 0 16 16" id="telegram" xmlns="http://www.w3.org/2000/svg"><g clip-path="url(#gclip0_149_809)"><path d="M14.701 1.42L.526 6.913c-.57.256-.764.768-.138 1.046l3.637 1.162 8.792-5.462c.48-.343.972-.252.549.126l-7.552 6.873-.237 2.908c.22.45.622.451.879.228l2.089-1.987 3.578 2.693c.831.495 1.284.176 1.462-.73l2.347-11.172c.244-1.115-.171-1.607-1.23-1.18z"/></g><defs><clipPath id="gclip0_149_809"><path d="M0 0h16v16H0z"/></clipPath></defs></svg><svg viewBox="0 0 28 27" id="tick" xmlns="http://www.w3.org/2000/svg"><path d="M25.643 11.123c-.624 0-1.13.507-1.13 1.131v1.14a11.052 11.052 0 01-3.264 7.864 11.052 11.052 0 01-7.862 3.254h-.006C7.246 24.51 2.259 19.515 2.262 13.381a11.052 11.052 0 013.263-7.865 11.052 11.052 0 017.862-3.254h.007c1.568.001 3.089.325 4.521.963a1.131 1.131 0 10.92-2.066A13.303 13.303 0 0013.396 0h-.008a13.3 13.3 0 00-9.46 3.916A13.3 13.3 0 000 13.38a13.3 13.3 0 003.916 9.468 13.3 13.3 0 009.463 3.926h.008a13.3 13.3 0 009.461-3.915 13.3 13.3 0 003.926-9.465v-1.14a1.13 1.13 0 00-1.13-1.13z"/><path d="M27.669 1.565a1.131 1.131 0 00-1.6 0L13.387 14.247 10.51 11.37a1.131 1.131 0 10-1.6 1.6l3.678 3.676a1.127 1.127 0 001.6 0l13.48-13.482a1.131 1.131 0 000-1.6z"/></svg><svg viewBox="0 0 47 51" id="warranty" xmlns="http://www.w3.org/2000/svg"><g clip-path="url(#clip0_215_837)"><path d="M23.073 0c1.5 0 2.59.46 3.55 1.41 1.882 1.881 3.986 3.452 6.352 4.682.203.1.435.33.466.53.04.24-.06.56-.213.75-.242.301-.596.24-.92.08-1.972-1.02-3.803-2.23-5.452-3.72-.435-.39-.85-.8-1.274-1.201-1.578-1.48-3.409-1.44-5.007.02-1.153 1.06-2.326 2.12-3.59 3.031-3.136 2.271-6.676 3.642-10.52 4.212-1.243.18-2.437.46-3.367 1.38-1.285 1.25-1.639 2.771-1.356 4.482.486 2.961.91 5.932 1.507 8.874.78 3.831 1.76 7.623 3.5 11.164a14.555 14.555 0 002.58 3.721c3.307 3.432 7.019 6.383 10.902 9.124 1.79 1.27 3.955 1.27 5.735 0 3.166-2.24 6.15-4.712 9.073-7.273 3.115-2.74 4.986-6.142 6.18-10.004 1.234-4.001 2.114-8.073 2.74-12.215.213-1.43.506-2.85.577-4.281.122-2.601-1.638-4.482-4.238-4.892-1.547-.24-3.064-.67-4.592-1.03-.394-.09-.647-.34-.627-.78.02-.391.233-.621.597-.701.152-.03.334.01.485.05 1.67.36 3.328.76 4.997 1.08 2.923.57 5.189 3.332 4.905 6.283-.252 2.57-.677 5.122-1.132 7.673-.637 3.571-1.467 7.103-2.69 10.534-.688 1.91-1.427 3.801-2.63 5.462-.76 1.05-1.639 2.02-2.55 2.941-3.114 3.141-6.584 5.862-10.205 8.403-2.316 1.621-5.097 1.651-7.434.02-3.873-2.7-7.535-5.662-10.873-9.013-1.8-1.81-3.044-3.942-3.985-6.273-1.537-3.801-2.488-7.763-3.216-11.774-.465-2.491-.83-4.962-1.204-7.443-.505-3.281 1.942-6.463 5.34-6.903 4.32-.57 8.214-2.13 11.632-4.812.91-.71 1.73-1.52 2.58-2.3C20.655.41 21.572 0 23.072 0z"/><path d="M40.41 16.536c-.142.95-.314 2.211-.517 3.472-.505 3.111-1.041 6.212-2.012 9.213-.536 1.651-1.194 3.262-1.851 4.872-.769 1.861-2.236 3.181-3.722 4.452-2.397 2.03-4.855 3.992-7.303 5.952-1.143.92-2.498.98-3.62.13-3.066-2.3-6.04-4.701-8.84-7.312-1.498-1.401-2.428-3.112-3.167-4.962-1.304-3.302-2.113-6.733-2.71-10.214-.314-1.841-.597-3.702-.88-5.553-.223-1.44.667-2.81 2.094-3.21 1.527-.441 3.074-.791 4.581-1.291 3.116-1.04 5.897-2.681 8.426-4.752.192-.16.394-.32.596-.46 1.042-.76 2.215-.75 3.257.01 1.103.81 2.165 1.68 3.318 2.43 3.044 1.991 6.392 3.242 9.952 3.982 1.538.31 2.417 1.42 2.397 3.241zm-1.508-.27c0-.77-.475-1.31-1.193-1.49-1.346-.35-2.7-.65-4.016-1.08-3.54-1.151-6.705-2.982-9.568-5.343-.85-.7-1.183-.65-2.073-.01-1.558 1.12-3.105 2.261-4.754 3.242-2.71 1.6-5.684 2.56-8.77 3.2-.9.19-1.324.801-1.193 1.711.294 1.961.587 3.932.93 5.893.567 3.271 1.366 6.482 2.6 9.573.648 1.641 1.507 3.132 2.822 4.352 2.7 2.521 5.583 4.832 8.527 7.063.617.47 1.193.46 1.84-.07a756.297 756.297 0 008.223-6.803c1.113-.93 2.003-2.06 2.539-3.421.597-1.49 1.173-2.991 1.659-4.522.92-2.881 1.416-5.852 1.911-8.833.193-1.18.354-2.371.516-3.462z"/><path d="M23.055 26.57c1.972-2.01 3.914-4.011 5.876-5.992 1.022-1.03 2.276-1.21 3.439-.56 1.446.81 1.84 2.701.82 4.002-.153.2-.335.38-.507.55l-7.403 7.263c-1.335 1.3-2.7 1.37-4.157.22-.324-.26-.658-.51-.971-.79-.364-.32-.405-.791-.132-1.101.263-.3.698-.34 1.093-.05.394.29.758.61 1.143.9.657.49 1.203.48 1.8-.1 2.58-2.52 5.158-5.042 7.727-7.573.546-.54.587-1.29.122-1.78-.476-.5-1.275-.49-1.831.06a1804.3 1804.3 0 00-6.26 6.142c-.668.65-.89.67-1.62.08-1.365-1.1-2.73-2.21-4.106-3.301-.88-.7-1.78-.45-2.083.57-.162.53.09.91.465 1.22.648.55 1.325 1.07 1.983 1.621.161.13.374.33.384.49 0 .27-.081.59-.253.79-.223.26-.587.27-.87.04-.85-.67-1.74-1.31-2.508-2.07-.749-.73-.991-1.69-.597-2.711.374-.97 1.011-1.691 2.104-1.861.86-.14 1.628.15 2.286.68 1.203.95 2.397 1.921 3.6 2.891.071.07.172.15.456.37z"/></g></svg><svg viewBox="0 0 30 13" id="wb" xmlns="http://www.w3.org/2000/svg"><g clip-path="url(#jclip0_659_176)"><path d="M3.472 13L0 0h2.288l2.664 9.986L7.805 0h2.127l2.88 10.04L15.503 0h2.288l-3.5 13-2.637-.027-2.772-9.69L6.11 13H3.472zM29.284 9.286c0 1.076-.377 1.938-1.13 2.637-.754.7-1.67 1.077-2.773 1.077H19.81V0h5.14c1.077 0 1.965.35 2.692 1.023.753.7 1.103 1.534 1.103 2.557 0 1.13-.457 2.018-1.319 2.637 1.158.62 1.858 1.723 1.858 3.069zm-7.321-7.267v3.418h3.014c.942 0 1.669-.754 1.669-1.696 0-.969-.727-1.695-1.669-1.695h-3.014v-.027zm3.418 8.99c.996 0 1.776-.808 1.776-1.83 0-1.024-.78-1.804-1.776-1.804h-3.418v3.633h3.418z"/></g><defs><clipPath id="jclip0_659_176"><path d="M0 0h29.284v13H0z"/></clipPath></defs></svg><svg viewBox="0 0 16 12" id="youtube" xmlns="http://www.w3.org/2000/svg"><path d="M15.993 6.248c-.005-.142-.01-.284-.013-.426-.022-.824-.032-1.65-.078-2.473-.045-.804-.307-1.548-.623-2.283-.108-.252-.376-.458-.617-.612C14.26.197 13.72.14 13.259.106 12.64.061 12.02.062 11.402.046 10.65.027 9.899.1 9.15.053A38.323 38.323 0 006.893 0C6.03-.002 5.169.023 4.307.033c-.424.005-.85.007-1.275 0-.356-.007-.977.031-1.31.168C1.057.473.876.774.518 1.416c-.185.33-.256.697-.28 1.077-.023.379-.194.736-.184 1.112C.07 4.19-.001 4.77 0 5.352c.003 1.57-.01 3.152.664 4.59l.156.273c.108.145.149.34.274.464.258.257.772.307 1.112.349.424.052.853.053 1.279.088.7.056 1.435-.019 2.137.017.705.035 1.403.05 2.11.032 1.72-.045 3.436.072 5.155-.053.706-.051 1.592.104 2.105-.487.475-.546.66-1.268.806-1.959.168-.79.223-1.61.195-2.418zm-6.187.193c-.242.164-.504.292-.757.436-.515.294-1.01.638-1.512.954-.13.082-1.114.558-1.114.558.014-.41.004-.784-.01-1.176-.015-.411.003-.822-.003-1.234-.004-.246-.002-2.206-.003-2.587v-.66c.125.08.299.162.422.246.231.157.458.32.688.48.24.17.498.305.751.451.51.293.93.71 1.455.982.41.213.79.464 1.184.704-.03-.019-.882.697-1.1.846z"/></svg></svg>